<?xml version="1.0" encoding="utf-8"?>
<!-- Generator: Adobe Illustrator 16.0.0, SVG Export Plug-In . SVG Version: 6.00 Build 0)  -->
<!DOCTYPE svg PUBLIC "-//W3C//DTD SVG 1.1//EN" "http://www.w3.org/Graphics/SVG/1.1/DTD/svg11.dtd">
<svg version="1.1" id="Layer_6" xmlns="http://www.w3.org/2000/svg" xmlns:xlink="http://www.w3.org/1999/xlink" x="0px" y="0px"
	 width="100px" height="100px" viewBox="0 0 100 100" enable-background="new 0 0 100 100" xml:space="preserve">
<path fill-rule="evenodd" clip-rule="evenodd" d="M89.846,45.037c-0.743-6.754-3.229-12.924-7.248-18.422
	c-6.476-8.852-15.136-14.264-25.95-16.148c-2.157-0.375-4.362-0.473-6.544-0.699c-0.145,0-0.289,0-0.433,0
	c-2.039,0.223-4.087,0.371-6.112,0.682C22.765,13.641,7.731,33.33,10.108,54.277c1.134,9.998,5.322,18.525,12.757,25.324
	c8.84,8.086,19.341,11.553,31.246,10.422c9.136-0.871,17.109-4.555,23.68-10.986C87.334,69.693,91.303,58.27,89.846,45.037z
	 M81.373,65.623c-1.016-1.772-2.3-4.244-2.873-6.353c-0.833-3.063-2.833-0.104-3,1.896s-1.5,3.5-4.167,0.5s-3.167-2.333-4-2.333
	s-2.333,2-2,11.333c0.238,6.665,2.866,7.722,4.584,8.205c-3.189,2.192-6.854,3.919-10.968,4.964
	c-15.721,3.99-31.769-3.256-39.267-17.652C12.697,52.77,16.1,37.592,23.201,29.238c0.191,1.502,0.378,2.852,0.534,4.207
	c0.423,3.699,0.104,7.35-0.651,10.986c-0.161,0.775-0.105,1.658,0.104,2.42c0.114,0.416,0.741,0.908,1.175,0.949
	c0.341,0.033,0.937-0.508,1.075-0.914c0.25-0.727,0.26-1.541,0.337-2.322c0.055-0.551,0.056-1.109,0.094-1.973
	c0.564,0.457,0.975,0.734,1.317,1.078c0.871,0.877,1.752,1.75,2.547,2.693c0.351,0.418,0.713,1.004,0.703,1.508
	c-0.022,1.078,0.451,1.811,1.029,2.658c0.642,0.941,0.931,2.125,1.344,3.215c0.173,0.457,0.209,0.973,0.415,1.412
	c0.44,0.941,1.105,1.586,2.248,1.656c1.203,0.076,1.653,0.543,1.826,1.773c-0.308,0.035-0.614,0.076-0.921,0.105
	c-1.467,0.139-2.194,0.813-2.136,2.293c0.115,2.939,1.175,5.506,3.356,7.547c0.601,0.563,1.24,1.086,1.824,1.664
	c1.334,1.318,1.799,2.865,1.158,4.684c-0.307,0.867-0.728,1.719-0.864,2.615c-0.139,0.912-0.14,1.902,0.071,2.793
	c0.219,0.928,0.125,2.957,1.083,2.789c1.695-0.297,2.669,0.037,2.801-1.861c0.025-0.361-0.003-0.406-0.099-0.74
	c-0.504-1.781,1.784-6.838,3.157-7.76c1.173-0.789,2.349-1.592,3.412-2.518c1.533-1.332,2.219-3.053,1.575-5.057
	c-0.606-1.885,0.103-3.271,1.421-4.484c1.345-1.238,2.227-2.664,2.135-4.568c-0.092-1.904-1.338-3.279-2.962-3.084
	c-0.794,0.094-1.555,0.475-2.329,0.736c-1.135,0.383-2.242,0.92-3.407,1.129c-1.632,0.289-2.638-0.777-3.366-2.072
	c-0.586-1.041-0.779-1.121-1.796-0.473c-0.858,0.549-1.714,1.102-2.603,1.598c-0.923,0.516-1.426,0.324-2.138-0.447
	c-0.421-0.455-1.004-0.775-1.545-1.104c-0.389-0.238-0.915-0.303-1.227-0.602c-0.418-0.404-1.001-1.004-0.942-1.443
	c0.069-0.514,0.665-1.158,1.185-1.369c0.896-0.363,1.914-0.422,2.875-0.631c0.512-0.111,1.031-0.227,1.515-0.418
	c0.662-0.264,0.634-0.699,0.127-1.107c-0.25-0.201-0.559-0.342-0.86-0.463c-1.465-0.59-2.938-1.154-4.402-1.746
	c-0.364-0.146-0.722-0.326-1.049-0.539c-0.92-0.605-1.031-1.271-0.196-2.008c3.297-2.908,7.148-3.76,10.56,0.104
	c1.057,1.197,1.774,2.689,2.772,3.945c0.785,0.99,1.689,1.92,2.687,2.684c0.411,0.314,1.336,0.367,1.796,0.115
	c0.685-0.375,0.709-1.23,0.364-1.943c-0.298-0.619-0.648-1.229-1.069-1.771c-1.938-2.498-1.805-7.365,1.992-9.396
	c1.27-0.68,2.551-1.396,3.157-3.221c-0.727,0.197-1.254,0.324-1.771,0.482c-2.883,0.893-0.876-1.258,0.45-1.633
	c0.806-0.229-0.721-0.846-0.721-0.846c0.037-0.063,1.014-0.342,2.101-0.805c0.748-0.318,1.513-0.676,2.134-1.182
	c0.402-0.33,0.557-0.961,0.822-1.457c-0.067-0.078-0.133-0.154-0.201-0.232c-0.762,0.102-1.523,0.215-2.286,0.301
	c-1.294,0.145-1.598-0.109-1.718-1.414c-0.083-0.891-0.991-1.377-1.839-0.92c-0.574,0.311-1.07,0.762-1.622,1.119
	c-1.275,0.826-2.228,0.496-2.728-0.928c-0.298-0.848-0.713-1.008-1.493-0.533c-0.392,0.238-0.719,0.586-1.118,0.809
	c-0.654,0.365-1.319,0.732-2.021,0.98c-0.684,0.242-1.508,0.418-1.973-0.332c-0.5-0.807-0.063-1.592,0.567-2.098
	c0.784-0.629,1.687-1.117,2.569-1.611c1.256-0.707,2.586-1.295,3.799-2.066c0.89-0.568,1.279-1.494,0.991-2.586
	c-0.243-0.922-0.86-1.234-1.714-0.811c-0.705,0.35-1.321,0.898-2.046,1.18c-0.53,0.203-1.19,0.205-1.759,0.105
	c-0.21-0.037-0.433-0.619-0.439-0.957c-0.004-0.195,0.391-0.533,0.643-0.574c1.752-0.273,3.512-0.504,5.274-0.705
	c0.233-0.025,0.583,0.119,0.729,0.305c1.164,1.469,2.788,2.182,4.496,2.691c1.436,0.426,1.644,0.223,1.841-1.283
	c1.844-0.434,3.718-1.289,5.573-0.119c1.03,0.648,1.968,1.473,2.839,2.328c0.216,0.213,0.084,0.871-0.019,1.295
	c-0.137,0.57-0.452,1.096-0.598,1.666c-0.281,1.104,0.433,1.967,1.573,1.949c0.361-0.008,0.72-0.082,1.082-0.1
	c1.054-0.049,1.428,0.354,1.331,1.418c-0.136,1.508,0.115,1.689,1.636,1.432c0.438-0.074,0.943,0.125,1.389,0.281
	c0.265,0.094,0.472,0.348,0.708,0.527c1.415,1.072,2.497,0.67,2.911-1.084c0.045-0.191,0.039-0.395,0.078-0.588
	c0.164-0.787,0.609-0.99,1.14-0.43c1.125,1.191,2.18,2.449,3.322,3.748c-1.227,1.125-1.268,2.492-0.996,3.832
	c0.302,1.49-0.091,2.785-0.679,4.098c-0.563,1.258-1.182,2.508-1.558,3.824c-0.563,1.975,0.076,2.877,2.082,3.314
	c1.914,0.418,2.227,0.803,2.299,2.674c0.097,2.553,1.408,4.314,3.647,5.438c0.497,0.248,1.025,0.436,1.533,0.648
	C84.418,57.644,83.295,61.739,81.373,65.623z"/>
</svg>
