<?xml version="1.0" encoding="utf-8"?>
<!-- Generator: Adobe Illustrator 16.0.4, SVG Export Plug-In . SVG Version: 6.00 Build 0)  -->
<!DOCTYPE svg PUBLIC "-//W3C//DTD SVG 1.1//EN" "http://www.w3.org/Graphics/SVG/1.1/DTD/svg11.dtd">
<svg version="1.1" id="Capa_1" xmlns="http://www.w3.org/2000/svg" xmlns:xlink="http://www.w3.org/1999/xlink" x="0px" y="0px"
	 width="512px" height="512px" viewBox="0 0 512 512" enable-background="new 0 0 512 512" xml:space="preserve">
<path d="M400,208c-35.29,0-64,28.71-64,64s28.71,64,64,64s64-28.71,64-64S435.29,208,400,208z M400,160L400,160
	c61.855,0,112,50.144,112,112c0,61.855-50.145,112-112,112s-112-50.145-112-112C288,210.144,338.145,160,400,160z M0,272
	c0,61.855,50.144,112,112,112s112-50.145,112-112c0-61.856-50.144-112-112-112S0,210.144,0,272z"/>
</svg>
