<?xml version="1.0" encoding="iso-8859-1"?>
<!-- Generator: Adobe Illustrator 17.1.0, SVG Export Plug-In . SVG Version: 6.00 Build 0)  -->
<!DOCTYPE svg PUBLIC "-//W3C//DTD SVG 1.1//EN" "http://www.w3.org/Graphics/SVG/1.1/DTD/svg11.dtd">
<svg version="1.1" id="Capa_1" xmlns="http://www.w3.org/2000/svg" xmlns:xlink="http://www.w3.org/1999/xlink" x="0px" y="0px"
	 viewBox="0 0 100 100" style="enable-background:new 0 0 100 100;" xml:space="preserve">
<g>
	<path style="fill:#000100;" d="M8.772,91.253h11.742c1.62,0,2.933-1.313,2.933-2.933V36.996c0-1.62-1.313-2.933-2.933-2.933H8.772
		c-1.62,0-2.933,1.313-2.933,2.933V88.32C5.839,89.94,7.152,91.253,8.772,91.253z"/>
	<path style="fill:#000100;" d="M8.772,25.04h11.742c1.62,0,2.933-1.313,2.933-2.933V11.68c0-1.62-1.313-2.933-2.933-2.933H8.772
		c-1.62,0-2.933,1.313-2.933,2.933v10.427C5.839,23.727,7.152,25.04,8.772,25.04z"/>
	<path style="fill:#000100;" d="M91.743,40.016c-1.65-2.172-4.083-3.958-7.3-5.358c-3.217-1.399-6.768-2.099-10.653-2.099
		c-7.887,0-14.57,3.01-20.049,9.031c-1.09,1.198-1.883,0.936-1.883-0.684v-3.91c0-1.62-1.313-2.933-2.933-2.933H38.436
		c-1.62,0-2.933,1.313-2.933,2.933V88.32c0,1.62,1.313,2.933,2.933,2.933h11.742c1.62,0,2.933-1.313,2.933-2.933V70.471
		c0-7.436,0.449-12.533,1.347-15.29c0.898-2.757,2.559-4.971,4.982-6.642s5.159-2.507,8.209-2.507c2.381,0,4.418,0.585,6.11,1.755
		c1.692,1.17,2.914,2.809,3.666,4.919s1.128,6.757,1.128,13.943V88.32c0,1.62,1.313,2.933,2.933,2.933h11.742
		c1.62,0,2.933-1.313,2.933-2.933V59.254c0-5.138-0.324-9.086-0.971-11.843S93.394,42.189,91.743,40.016z"/>
</g>
</svg>
