<?xml version="1.0" encoding="utf-8"?>
<!-- Generator: Adobe Illustrator 16.0.4, SVG Export Plug-In . SVG Version: 6.00 Build 0)  -->
<!DOCTYPE svg PUBLIC "-//W3C//DTD SVG 1.1//EN" "http://www.w3.org/Graphics/SVG/1.1/DTD/svg11.dtd">
<svg version="1.1" id="Layer_1" xmlns="http://www.w3.org/2000/svg" xmlns:xlink="http://www.w3.org/1999/xlink" x="0px" y="0px"
	 width="50px" height="50px" viewBox="0 0 50 50" enable-background="new 0 0 50 50" xml:space="preserve">
<path d="M11.702,37.031c0-1.326,0.698-2.086,1.979-2.086c1.281,0,1.979,0.76,1.979,2.086v4.314c0,1.325-0.698,2.086-1.979,2.086
	c-1.279,0-1.979-0.761-1.979-2.086V37.031z M13.006,41.428c0,0.596,0.262,0.818,0.676,0.818s0.676-0.225,0.676-0.818v-4.479
	c0-0.592-0.262-0.816-0.676-0.816s-0.676,0.225-0.676,0.816V41.428z M17.666,37.328v6.008h-1.172v-8.297h1.636l1.337,4.967v-4.967
	h1.162v8.297H19.29L17.666,37.328z M23.406,35.039h1.304v7.111h2.146v1.186h-3.447L23.406,35.039L23.406,35.039z M27.427,35.039
	h1.304v8.297h-1.304V35.039z M30.84,37.328v6.008h-1.172v-8.297h1.635l1.34,4.967v-4.967h1.159v8.297h-1.338L30.84,37.328z
	 M36.045,38.535h1.79v1.186h-1.79v2.432h2.253v1.187h-3.556v-8.297h3.556v1.187h-2.253V38.535z M35.505,17.764h-0.532
	c-1.33-3.994-5.297-6.898-9.973-6.898c-4.674,0-8.643,2.904-9.973,6.898h-0.534c-1.104,0-2.007,0.9-2.007,2.009v2.338
	c0,1.104,0.902,2.007,2.007,2.007h0.478c1.913,7.402,9.733,9.482,9.821,9.508l0.204,0.051l0.201-0.049
	c0.091-0.021,7.94-2.021,9.84-9.51h0.468c1.106,0,2.009-0.9,2.009-2.007v-2.339C37.514,18.665,36.611,17.764,35.505,17.764z
	 M31.756,27.285h-5.265c-0.255-0.463-0.746-0.777-1.313-0.777c-0.826,0-1.496,0.67-1.496,1.496c0,0.828,0.67,1.496,1.496,1.496
	c0.658,0,1.218-0.426,1.417-1.018h4.164c-2.218,2.309-4.975,3.233-5.757,3.459c-1.366-0.408-8.776-3.004-8.776-11.24
	c0-0.138,0.004-0.271,0.014-0.406c2.269-0.426,4.923-1.139,5.822-2.229c0,0,0.358,2.034-0.959,2.872c0,0,4.671-0.717,5.51-2.152
	c0,0,0.165,3.723,7.081,3.312C33.468,24.236,32.723,25.938,31.756,27.285z M39.535,18.984C39.247,11.872,33.096,6.568,25,6.568
	c-8.098,0-14.247,5.302-14.535,12.416c-0.582,0.269-0.971,0.8-0.971,1.425v1.062c0,0.902,0.809,1.609,1.841,1.609h0.802v-1.078
	v-2.125V19.19C12.316,12.927,17.783,8.245,25,8.245c7.221,0,12.689,4.688,12.863,10.955v0.678v2.125v1.076h0.802
	c1.032,0,1.841-0.705,1.841-1.607V20.41C40.506,19.784,40.117,19.252,39.535,18.984z"/>
</svg>
