<?xml version="1.0" encoding="utf-8"?>
<!-- Generator: Adobe Illustrator 16.0.0, SVG Export Plug-In . SVG Version: 6.00 Build 0)  -->
<!DOCTYPE svg PUBLIC "-//W3C//DTD SVG 1.1//EN" "http://www.w3.org/Graphics/SVG/1.1/DTD/svg11.dtd">
<svg version="1.1" id="Layer_1" xmlns="http://www.w3.org/2000/svg" xmlns:xlink="http://www.w3.org/1999/xlink" x="0px" y="0px"
	 width="512px" height="512px" viewBox="0 0 512 512" enable-background="new 0 0 512 512" xml:space="preserve">
<path d="M448,160v64c0,95.094-69.25,173.844-160,189.125V480h48c8.844,0,16,7.156,16,16s-7.156,16-16,16H176
	c-8.844,0-16-7.156-16-16s7.156-16,16-16h48v-66.875C133.25,397.844,64,319.094,64,224v-64h32v64
	c-0.719,57.625,29.625,111.219,79.438,140.219c49.781,29.031,111.344,29.031,161.156,0c49.781-29,80.125-82.594,79.406-140.219v-64
	H448z M256,320c53,0,96-42.969,96-96V96c0-53.016-43-96-96-96s-96,42.984-96,96v128C160,277.031,203,320,256,320z"/>
</svg>
